<svg width="458.840673828125px" height="106.39999999999999px" xmlns="http://www.w3.org/2000/svg" viewBox="20.57966308593751 21.800000000000004 458.840673828125 106.39999999999999" style="background: rgba(0, 0, 0, 0);" preserveAspectRatio="xMidYMid"><defs><filter id="editing-hole" x="-100%" y="-100%" width="300%" height="300%"><feFlood flood-color="#000" result="black"></feFlood><feMorphology operator="dilate" radius="2" in="SourceGraphic" result="erode"></feMorphology><feGaussianBlur in="erode" stdDeviation="4" result="blur"></feGaussianBlur><feOffset in="blur" dx="2" dy="2" result="offset"></feOffset><feComposite operator="atop" in="offset" in2="black" result="merge"></feComposite><feComposite operator="in" in="merge" in2="SourceGraphic" result="inner-shadow"></feComposite></filter></defs><g filter="url(#editing-hole)"><g transform="translate(90.03506135940552, 99.81000137329102)"><path d="M28.46-25.70L28.46-25.70L28.46-25.70Q28.46-28.56 25.45-28.56L25.45-28.56L25.45-28.56Q22.85-28.56 18.69-26.11L18.69-26.11L18.69-26.11Q14.54-23.66 10.15-18.64L10.15-18.64L10.15-18.64Q5.76-13.62 4.03-8.11L4.03-8.11L4.03-8.11Q3.32-5.92 3.32-4.05L3.32-4.05L3.32-4.05Q3.32-2.19 4.39-0.82L4.39-0.82L4.39-0.82Q6.27 1.63 10.56 1.68L10.56 1.68L10.56 1.68Q10.86 1.68 11.12 1.68L11.12 1.68L11.12 1.68Q15.86 1.68 21.37-0.74L21.37-0.74L21.37-0.74Q26.88-3.16 30.19-7.85L30.19-7.85L30.19-7.85Q30.45-8.21 30.73-8.01L30.73-8.01L30.73-8.01Q31.01-7.80 31.01-7.65L31.01-7.65L31.01-7.65Q31.01-7.50 30.91-7.40L30.91-7.40L30.91-7.40Q27.13-2.24 21.62 0.36L21.62 0.36L21.62 0.36Q16.12 2.96 10.97 2.96L10.97 2.96L10.97 2.96Q5.56 2.96 2.81-0.10L2.81-0.10L2.81-0.10Q1.02-2.09 1.02-5.30L1.02-5.30L1.02-5.30Q1.02-10.71 5.10-16.93L5.10-16.93L5.10-16.93Q10.66-25.40 18.56-28.66L18.56-28.66L18.56-28.66Q21.62-29.89 24.43-29.89L24.43-29.89L24.43-29.89Q27.90-29.89 29.38-28.25L29.38-28.25L29.38-28.25Q30.35-27.13 30.35-25.65L30.35-25.65L30.35-25.65Q30.35-22.85 27.39-19.89L27.39-19.89L27.39-19.89Q24.43-16.93 20.83-15.17L20.83-15.17L20.83-15.17Q17.24-13.41 14.59-13.16L14.59-13.16L14.59-13.16Q13.52-13.06 13.57-13.72L13.57-13.72L13.57-13.72Q13.62-14.64 14.84-14.74L14.84-14.74L14.84-14.74Q18.92-15.10 22.34-17.21L22.34-17.21L22.34-17.21Q25.76-19.33 27.59-22.85L27.59-22.85L27.59-22.85Q28.46-24.23 28.46-25.70ZM46.82-29.84L46.82-29.84L46.82-29.84Q47.74-30.19 48.40-30.19L48.40-30.19L48.40-30.19Q50.64-30.19 51.36-28.97L51.36-28.97L51.36-28.97Q51.77-28.36 51.77-27.90L51.77-27.90L51.77-27.90Q51.77-24.43 45.95-19.18L45.95-19.18L45.95-19.18Q40.80-14.64 36.47-11.37L36.47-11.37L36.47-11.37Q35.04-8.16 33.51-3.47L33.51-3.47L33.51-3.47Q35.34-5.71 38.15-8.67L38.15-8.67L38.15-8.67Q43.81-14.54 46.05-14.54L46.05-14.54L46.05-14.54Q47.18-14.54 47.23-13.41L47.23-13.41L47.23-13.41Q47.33-12.24 46.74-11.17L46.74-11.17L46.74-11.17Q46.16-10.10 45.65-9.18L45.65-9.18L45.65-9.18Q43.25-5.20 43.25-2.09L43.25-2.09L43.25-2.09Q43.25-1.07 43.66-0.61L43.66-0.61L43.66-0.61Q44.37 0.20 45.70-0.51L45.70-0.51L45.70-0.51Q47.02-1.22 49.39-3.37L49.39-3.37L49.39-3.37Q51.77-5.51 53.24-7.55L53.24-7.55L53.24-7.55Q53.50-7.80 53.73-7.68L53.73-7.68L53.73-7.68Q53.96-7.55 53.96-7.42L53.96-7.42L53.96-7.42Q53.96-7.29 53.86-7.14L53.86-7.14L53.86-7.14Q53.09-5.76 51.10-3.65L51.10-3.65L51.10-3.65Q49.11-1.53 47.89-0.61L47.89-0.61L47.89-0.61Q45.54 1.17 43.40 1.17L43.40 1.17L43.40 1.17Q41.46 1.17 40.80-0.77L40.80-0.77L40.80-0.77Q40.65-1.22 40.65-1.86L40.65-1.86L40.65-1.86Q40.65-2.50 40.75-3.21L40.75-3.21L40.75-3.21Q41.00-5.36 43.45-9.89L43.45-9.89L43.45-9.89Q43.96-10.81 43.96-11.19L43.96-11.19L43.96-11.19Q43.96-11.58 43.55-11.58L43.55-11.58L43.55-11.58Q42.74-11.58 40.39-9.54L40.39-9.54L40.39-9.54Q38.81-8.06 35.73-3.95L35.73-3.95L35.73-3.95Q32.64 0.15 32.23 0.41L32.23 0.41L32.23 0.41Q30.40 1.33 29.96 1.33L29.96 1.33L29.96 1.33Q29.53 1.33 29.48 1.20L29.48 1.20L29.48 1.20Q29.43 1.07 29.53 0.87L29.53 0.87L29.53 0.87Q29.63 0.66 30.35-1.38L30.35-1.38L30.35-1.38Q32.74-8.16 33.61-10.35L33.61-10.35L33.61-10.35Q31.93-8.21 29.43-5.51L29.43-5.51L29.43-5.51Q29.02-5.10 29.02-5.69L29.02-5.69L29.02-5.69Q29.02-6.27 29.48-6.89L29.48-6.89L29.48-6.89Q29.94-7.50 31.39-9.26L31.39-9.26L31.39-9.26Q32.84-11.02 33.46-11.88L33.46-11.88L33.46-11.88Q33.00-12.14 32.97-12.60L32.97-12.60L32.97-12.60Q32.95-13.06 33.28-13.23L33.28-13.23L33.28-13.23Q33.61-13.41 34.37-13.11L34.37-13.11L34.37-13.11Q34.88-13.82 35.29-14.69L35.29-14.69L35.29-14.69Q41.36-27.74 46.82-29.84ZM49.67-26.01L49.67-26.01L49.67-26.01Q50.34-27.23 50.34-28.08L50.34-28.08L50.34-28.08Q50.34-28.92 49.60-28.92L49.60-28.92L49.60-28.92Q48.86-28.92 47.63-28.00L47.63-28.00L47.63-28.00Q42.02-23.72 37.49-13.67L37.49-13.67L37.49-13.67Q40.80-15.81 44.42-19.38L44.42-19.38L44.42-19.38Q48.04-22.95 49.67-26.01ZM55.13 0.56L55.13 0.56L55.13 0.56Q54.32 0.56 53.37 0.08L53.37 0.08L53.37 0.08Q52.43-0.41 51.77-1.30L51.77-1.30L51.77-1.30Q51.10-2.19 51.10-3.21L51.10-3.21L51.10-3.21Q51.10-4.23 51.56-5.15L51.56-5.15L51.56-5.15Q52.58-7.29 54.85-9.31L54.85-9.31L54.85-9.31Q57.12-11.32 59.57-12.75L59.57-12.75L59.57-12.75Q62.02-14.18 63.44-14.54L63.44-14.54L63.44-14.54Q64.87-14.89 66.22-14.89L66.22-14.89L66.22-14.89Q67.58-14.89 68.54-14.20L68.54-14.20L68.54-14.20Q69.51-13.52 69.51-12.75L69.51-12.75L69.51-12.75Q69.51-12.50 69.46-12.44L69.46-12.44L69.46-12.44Q69.41-12.39 69.21-12.50L69.21-12.50L69.21-12.50Q68.59-13.46 66.68-13.46L66.68-13.46L66.68-13.46Q64.77-13.46 62.35-12.21L62.35-12.21L62.35-12.21Q59.93-10.97 57.78-9.08L57.78-9.08L57.78-9.08Q56.00-7.40 54.65-5.28L54.65-5.28L54.65-5.28Q53.30-3.16 53.30-2.19L53.30-2.19L53.30-2.19Q53.30-0.31 54.37-0.31L54.37-0.31L54.37-0.31Q55.44-0.31 57.63-2.04L57.63-2.04L57.63-2.04Q61.25-5.10 62.58-6.53L62.58-6.53L62.58-6.53Q67.27-11.58 67.63-11.58L67.63-11.58L67.63-11.58Q68.24-11.58 69.11-11.22L69.11-11.22L69.11-11.22Q69.97-10.86 69.67-10.35L69.67-10.35L69.67-10.35Q67.06-6.68 66.61-2.96L66.61-2.96L66.61-2.96Q66.56-2.50 66.56-1.79L66.56-1.79L66.56-1.79Q66.56-1.07 66.96-0.61L66.96-0.61L66.96-0.61Q67.73 0.20 69.05-0.51L69.05-0.51L69.05-0.51Q70.38-1.22 72.75-3.37L72.75-3.37L72.75-3.37Q75.12-5.51 76.55-7.55L76.55-7.55L76.55-7.55Q76.76-7.80 77.01-7.68L77.01-7.68L77.01-7.68Q77.27-7.55 77.27-7.45L77.27-7.45L77.27-7.45Q77.27-6.68 74.84-4.11L74.84-4.11L74.84-4.11Q72.42-1.53 71.15-0.61L71.15-0.61L71.15-0.61Q68.75 1.17 66.71 1.17L66.71 1.17L66.71 1.17Q64.77 1.17 64.11-0.77L64.11-0.77L64.11-0.77Q63.95-1.38 63.95-2.14L63.95-2.14L63.95-2.14Q63.95-4.44 64.92-6.99L64.92-6.99L64.92-6.99Q64.72-6.89 63.04-4.95L63.04-4.95L63.04-4.95Q61.35-3.01 59.13-1.22L59.13-1.22L59.13-1.22Q56.92 0.56 55.13 0.56ZM90.07-14.48L90.07-14.48L90.07-14.48Q91.24-14.48 91.24-13.23L91.24-13.23L91.24-13.23Q91.24-11.99 90.07-9.79L90.07-9.79L90.07-9.79Q88.89-7.60 88.33-6.22L88.33-6.22L88.33-6.22Q87.36-3.88 87.36-2.47L87.36-2.47L87.36-2.47Q87.36-1.07 87.77-0.61L87.77-0.61L87.77-0.61Q88.54 0.20 89.86-0.54L89.86-0.54L89.86-0.54Q91.19-1.28 93.56-3.39L93.56-3.39L93.56-3.39Q95.93-5.51 97.36-7.55L97.36-7.55L97.36-7.55Q97.56-7.80 97.84-7.68L97.84-7.68L97.84-7.68Q98.12-7.55 98.12-7.42L98.12-7.42L98.12-7.42Q98.12-7.29 98.02-7.14L98.02-7.14L98.02-7.14Q97.26-5.76 95.27-3.62L95.27-3.62L95.27-3.62Q93.28-1.48 91.44-0.18L91.44-0.18L91.44-0.18Q89.61 1.12 87.82 1.12L87.82 1.12L87.82 1.12Q86.09 1.07 85.37 0.33L85.37 0.33L85.37 0.33Q84.66-0.41 84.66-1.53L84.66-1.53L84.66-1.53Q84.66-2.65 84.86-3.70L84.86-3.70L84.86-3.70Q85.07-4.74 85.63-6.12L85.63-6.12L85.63-6.12Q86.55-8.31 87.24-9.54L87.24-9.54L87.24-9.54Q87.92-10.76 87.92-11.14L87.92-11.14L87.92-11.14Q87.92-11.53 87.52-11.53L87.52-11.53L87.52-11.53Q86.70-11.53 84.41-9.54L84.41-9.54L84.41-9.54Q82.82-8.06 79.74-3.95L79.74-3.95L79.74-3.95Q76.65 0.15 76.25 0.41L76.25 0.41L76.25 0.41Q74.41 1.33 73.95 1.33L73.95 1.33L73.95 1.33Q73.49 1.33 73.49 1.17L73.49 1.17L73.49 1.17Q73.49 1.02 73.59 0.74L73.59 0.74L73.59 0.74Q73.70 0.46 74.59-2.04L74.59-2.04L74.59-2.04Q75.48-4.54 76.53-7.52L76.53-7.52L76.53-7.52Q77.57-10.51 77.80-11.12L77.80-11.12L77.80-11.12Q78.03-11.73 78.11-12.16L78.11-12.16L78.11-12.16Q78.18-12.60 78.29-12.90L78.29-12.90L78.29-12.90Q78.39-13.21 78.67-13.59L78.67-13.59L78.67-13.59Q78.95-13.97 79.41-14.00L79.41-14.00L79.41-14.00Q79.87-14.03 80.58-13.90L80.58-13.90L80.58-13.90Q81.29-13.77 81.29-13.26L81.29-13.26L81.29-13.26Q81.29-12.90 80.73-11.70L80.73-11.70L80.73-11.70Q80.17-10.51 77.52-3.47L77.52-3.47L77.52-3.47Q79.36-5.71 82.16-8.64L82.16-8.64L82.16-8.64Q84.97-11.58 86.90-13.11L86.90-13.11L86.90-13.11Q88.84-14.48 90.07-14.48ZM99.02-9.31L99.02-9.31L99.02-9.31Q101.29-11.32 103.73-12.75L103.73-12.75L103.73-12.75Q106.18-14.18 107.61-14.54L107.61-14.54L107.61-14.54Q109.04-14.89 110.42-14.89L110.42-14.89L110.42-14.89Q111.79-14.89 113.02-13.97L113.02-13.97L113.02-13.97Q120.00-30.19 126.38-30.19L126.38-30.19L126.38-30.19Q128.52-30.19 129.29-28.97L129.29-28.97L129.29-28.97Q129.64-28.36 129.64-27.90L129.64-27.90L129.64-27.90Q129.64-26.62 128.55-24.66L128.55-24.66L128.55-24.66Q127.45-22.70 125.15-20.35L125.15-20.35L125.15-20.35Q122.86-18.00 118.58-14.56L118.58-14.56L118.58-14.56Q114.29-11.12 113.83-10.71L113.83-10.71L113.83-10.71Q112.20-6.94 111.28-3.42L111.28-3.42L111.28-3.42Q110.36 0.10 110.36 1.84L110.36 1.84L110.36 1.84Q110.36 3.57 110.98 4.59L110.98 4.59L110.98 4.59Q111.28 5.25 111.89 5.38L111.89 5.38L111.89 5.38Q112.51 5.51 112.94 5.23L112.94 5.23L112.94 5.23Q113.37 4.95 113.60 4.74L113.60 4.74L113.60 4.74Q113.83 4.54 114.16 4.36L114.16 4.36L114.16 4.36Q114.50 4.18 114.65 4.28L114.65 4.28L114.65 4.28Q114.80 4.39 114.60 4.85L114.60 4.85L114.60 4.85Q114.19 5.36 113.83 5.71L113.83 5.71L113.83 5.71Q113.02 6.27 111.92 6.27L111.92 6.27L111.92 6.27Q110.82 6.27 110.47 6.22L110.47 6.22L110.47 6.22Q108.02 5.81 108.02 2.65L108.02 2.65L108.02 2.65Q108.02-0.41 108.83-3.01L108.83-3.01L108.83-3.01Q109.96-6.58 110.87-8.93L110.87-8.93L110.87-8.93Q102.71 0.56 99.30 0.56L99.30 0.56L99.30 0.56Q98.48 0.56 97.54 0.08L97.54 0.08L97.54 0.08Q96.59-0.41 95.93-1.30L95.93-1.30L95.93-1.30Q95.27-2.19 95.27-3.21L95.27-3.21L95.27-3.21Q95.27-4.23 95.73-5.15L95.73-5.15L95.73-5.15Q96.75-7.29 99.02-9.31ZM111.89-11.42L112.61-13.16L112.61-13.16Q112.00-13.46 110.47-13.46L110.47-13.46L110.47-13.46Q108.94-13.46 106.51-12.21L106.51-12.21L106.51-12.21Q104.09-10.97 101.95-9.08L101.95-9.08L101.95-9.08Q100.16-7.40 98.81-5.28L98.81-5.28L98.81-5.28Q97.46-3.16 97.46-2.19L97.46-2.19L97.46-2.19Q97.46-0.31 98.53-0.31L98.53-0.31L98.53-0.31Q99.60-0.31 101.80-2.04L101.80-2.04L101.80-2.04Q107.46-6.68 111.89-11.42L111.89-11.42ZM127.55-26.01L127.55-26.01L127.55-26.01Q128.21-27.23 128.21-28.08L128.21-28.08L128.21-28.08Q128.21-28.92 127.47-28.92L127.47-28.92L127.47-28.92Q126.74-28.92 125.51-28.00L125.51-28.00L125.51-28.00Q119.90-23.72 115.36-13.67L115.36-13.67L115.36-13.67Q118.68-15.81 122.30-19.38L122.30-19.38L122.30-19.38Q125.92-22.95 127.55-26.01ZM133.37-29.84L133.37-29.84L133.37-29.84Q134.28-30.19 134.95-30.19L134.95-30.19L134.95-30.19Q137.19-30.19 137.90-28.97L137.90-28.97L137.90-28.97Q138.31-28.36 138.31-27.90L138.31-27.90L138.31-27.90Q138.31-24.43 132.50-19.18L132.50-19.18L132.50-19.18Q127.35-14.64 123.01-11.37L123.01-11.37L123.01-11.37Q121.58-8.16 120.05-3.47L120.05-3.47L120.05-3.47Q121.89-5.71 124.70-8.67L124.70-8.67L124.70-8.67Q130.36-14.54 132.60-14.54L132.60-14.54L132.60-14.54Q133.72-14.54 133.77-13.41L133.77-13.41L133.77-13.41Q133.88-12.24 133.29-11.17L133.29-11.17L133.29-11.17Q132.70-10.10 132.19-9.18L132.19-9.18L132.19-9.18Q129.80-5.20 129.80-2.09L129.80-2.09L129.80-2.09Q129.80-1.07 130.20-0.61L130.20-0.61L130.20-0.61Q130.92 0.20 132.24-0.51L132.24-0.51L132.24-0.51Q133.57-1.22 135.94-3.37L135.94-3.37L135.94-3.37Q138.31-5.51 139.79-7.55L139.79-7.55L139.79-7.55Q140.05-7.80 140.28-7.68L140.28-7.68L140.28-7.68Q140.51-7.55 140.51-7.42L140.51-7.42L140.51-7.42Q140.51-7.29 140.40-7.14L140.40-7.14L140.40-7.14Q139.64-5.76 137.65-3.65L137.65-3.65L137.65-3.65Q135.66-1.53 134.44-0.61L134.44-0.61L134.44-0.61Q132.09 1.17 129.95 1.17L129.95 1.17L129.95 1.17Q128.01 1.17 127.35-0.77L127.35-0.77L127.35-0.77Q127.19-1.22 127.19-1.86L127.19-1.86L127.19-1.86Q127.19-2.50 127.30-3.21L127.30-3.21L127.30-3.21Q127.55-5.36 130.00-9.89L130.00-9.89L130.00-9.89Q130.51-10.81 130.51-11.19L130.51-11.19L130.51-11.19Q130.51-11.58 130.10-11.58L130.10-11.58L130.10-11.58Q129.29-11.58 126.94-9.54L126.94-9.54L126.94-9.54Q125.36-8.06 122.27-3.95L122.27-3.95L122.27-3.95Q119.19 0.15 118.78 0.41L118.78 0.41L118.78 0.41Q116.94 1.33 116.51 1.33L116.51 1.33L116.51 1.33Q116.08 1.33 116.03 1.20L116.03 1.20L116.03 1.20Q115.97 1.07 116.08 0.87L116.08 0.87L116.08 0.87Q116.18 0.66 116.89-1.38L116.89-1.38L116.89-1.38Q119.29-8.16 120.16-10.35L120.16-10.35L120.16-10.35Q118.47-8.21 115.97-5.51L115.97-5.51L115.97-5.51Q115.57-5.10 115.57-5.69L115.57-5.69L115.57-5.69Q115.57-6.27 116.03-6.89L116.03-6.89L116.03-6.89Q116.48-7.50 117.94-9.26L117.94-9.26L117.94-9.26Q119.39-11.02 120.00-11.88L120.00-11.88L120.00-11.88Q119.54-12.14 119.52-12.60L119.52-12.60L119.52-12.60Q119.49-13.06 119.82-13.23L119.82-13.23L119.82-13.23Q120.16-13.41 120.92-13.11L120.92-13.11L120.92-13.11Q121.43-13.82 121.84-14.69L121.84-14.69L121.84-14.69Q127.91-27.74 133.37-29.84ZM136.22-26.01L136.22-26.01L136.22-26.01Q136.88-27.23 136.88-28.08L136.88-28.08L136.88-28.08Q136.88-28.92 136.14-28.92L136.14-28.92L136.14-28.92Q135.41-28.92 134.18-28.00L134.18-28.00L134.18-28.00Q128.57-23.72 124.03-13.67L124.03-13.67L124.03-13.67Q127.35-15.81 130.97-19.38L130.97-19.38L130.97-19.38Q134.59-22.95 136.22-26.01ZM141.68 0.56L141.68 0.56L141.68 0.56Q140.86 0.56 139.92 0.08L139.92 0.08L139.92 0.08Q138.98-0.41 138.31-1.30L138.31-1.30L138.31-1.30Q137.65-2.19 137.65-3.21L137.65-3.21L137.65-3.21Q137.65-4.23 138.11-5.15L138.11-5.15L138.11-5.15Q139.13-7.29 141.40-9.31L141.40-9.31L141.40-9.31Q143.67-11.32 146.12-12.75L146.12-12.75L146.12-12.75Q148.56-14.18 149.99-14.54L149.99-14.54L149.99-14.54Q151.42-14.89 152.77-14.89L152.77-14.89L152.77-14.89Q154.12-14.89 155.09-14.20L155.09-14.20L155.09-14.20Q156.06-13.52 156.06-12.75L156.06-12.75L156.06-12.75Q156.06-12.50 156.01-12.44L156.01-12.44L156.01-12.44Q155.96-12.39 155.75-12.50L155.75-12.50L155.75-12.50Q155.14-13.46 153.23-13.46L153.23-13.46L153.23-13.46Q151.32-13.46 148.89-12.21L148.89-12.21L148.89-12.21Q146.47-10.97 144.33-9.08L144.33-9.08L144.33-9.08Q142.55-7.40 141.19-5.28L141.19-5.28L141.19-5.28Q139.84-3.16 139.84-2.19L139.84-2.19L139.84-2.19Q139.84-0.31 140.91-0.31L140.91-0.31L140.91-0.31Q141.98-0.31 144.18-2.04L144.18-2.04L144.18-2.04Q147.80-5.10 149.12-6.53L149.12-6.53L149.12-6.53Q153.82-11.58 154.17-11.58L154.17-11.58L154.17-11.58Q154.79-11.58 155.65-11.22L155.65-11.22L155.65-11.22Q156.52-10.86 156.21-10.35L156.21-10.35L156.21-10.35Q153.61-6.68 153.15-2.96L153.15-2.96L153.15-2.96Q153.10-2.50 153.10-1.79L153.10-1.79L153.10-1.79Q153.10-1.07 153.51-0.61L153.51-0.61L153.51-0.61Q154.28 0.20 155.60-0.51L155.60-0.51L155.60-0.51Q156.93-1.22 159.30-3.37L159.30-3.37L159.30-3.37Q161.67-5.51 163.10-7.55L163.10-7.55L163.10-7.55Q163.30-7.80 163.56-7.68L163.56-7.68L163.56-7.68Q163.81-7.55 163.81-7.45L163.81-7.45L163.81-7.45Q163.81-6.68 161.39-4.11L161.39-4.11L161.39-4.11Q158.97-1.53 157.69-0.61L157.69-0.61L157.69-0.61Q155.30 1.17 153.26 1.17L153.26 1.17L153.26 1.17Q151.32 1.17 150.65-0.77L150.65-0.77L150.65-0.77Q150.50-1.38 150.50-2.14L150.50-2.14L150.50-2.14Q150.50-4.44 151.47-6.99L151.47-6.99L151.47-6.99Q151.27-6.89 149.58-4.95L149.58-4.95L149.58-4.95Q147.90-3.01 145.68-1.22L145.68-1.22L145.68-1.22Q143.46 0.56 141.68 0.56ZM176.61-14.48L176.61-14.48L176.61-14.48Q177.79-14.48 177.79-13.23L177.79-13.23L177.79-13.23Q177.79-11.99 176.61-9.79L176.61-9.79L176.61-9.79Q175.44-7.60 174.88-6.22L174.88-6.22L174.88-6.22Q173.91-3.88 173.91-2.47L173.91-2.47L173.91-2.47Q173.91-1.07 174.32-0.61L174.32-0.61L174.32-0.61Q175.08 0.20 176.41-0.54L176.41-0.54L176.41-0.54Q177.74-1.28 180.11-3.39L180.11-3.39L180.11-3.39Q182.48-5.51 183.91-7.55L183.91-7.55L183.91-7.55Q184.11-7.80 184.39-7.68L184.39-7.68L184.39-7.68Q184.67-7.55 184.67-7.42L184.67-7.42L184.67-7.42Q184.67-7.29 184.57-7.14L184.57-7.14L184.57-7.14Q183.80-5.76 181.82-3.62L181.82-3.62L181.82-3.62Q179.83-1.48 177.99-0.18L177.99-0.18L177.99-0.18Q176.15 1.12 174.37 1.12L174.37 1.12L174.37 1.12Q172.64 1.07 171.92 0.33L171.92 0.33L171.92 0.33Q171.21-0.41 171.21-1.53L171.21-1.53L171.21-1.53Q171.21-2.65 171.41-3.70L171.41-3.70L171.41-3.70Q171.62-4.74 172.18-6.12L172.18-6.12L172.18-6.12Q173.09-8.31 173.78-9.54L173.78-9.54L173.78-9.54Q174.47-10.76 174.47-11.14L174.47-11.14L174.47-11.14Q174.47-11.53 174.06-11.53L174.06-11.53L174.06-11.53Q173.25-11.53 170.95-9.54L170.95-9.54L170.95-9.54Q169.37-8.06 166.29-3.95L166.29-3.95L166.29-3.95Q163.20 0.15 162.79 0.41L162.79 0.41L162.79 0.41Q160.96 1.33 160.50 1.33L160.50 1.33L160.50 1.33Q160.04 1.33 160.04 1.17L160.04 1.17L160.04 1.17Q160.04 1.02 160.14 0.74L160.14 0.74L160.14 0.74Q160.24 0.46 161.13-2.04L161.13-2.04L161.13-2.04Q162.03-4.54 163.07-7.52L163.07-7.52L163.07-7.52Q164.12-10.51 164.35-11.12L164.35-11.12L164.35-11.12Q164.58-11.73 164.65-12.16L164.65-12.16L164.65-12.16Q164.73-12.60 164.83-12.90L164.83-12.90L164.83-12.90Q164.93-13.21 165.21-13.59L165.21-13.59L165.21-13.59Q165.50-13.97 165.95-14.00L165.95-14.00L165.95-14.00Q166.41-14.03 167.13-13.90L167.13-13.90L167.13-13.90Q167.84-13.77 167.84-13.26L167.84-13.26L167.84-13.26Q167.84-12.90 167.28-11.70L167.28-11.70L167.28-11.70Q166.72-10.51 164.07-3.47L164.07-3.47L164.07-3.47Q165.90-5.71 168.71-8.64L168.71-8.64L168.71-8.64Q171.51-11.58 173.45-13.11L173.45-13.11L173.45-13.11Q175.39-14.48 176.61-14.48ZM185.84 0.56L185.84 0.56L185.84 0.56Q185.03 0.56 184.08 0.08L184.08 0.08L184.08 0.08Q183.14-0.41 182.48-1.30L182.48-1.30L182.48-1.30Q181.82-2.19 181.82-3.21L181.82-3.21L181.82-3.21Q181.82-4.23 182.27-5.15L182.27-5.15L182.27-5.15Q183.29-7.29 185.56-9.31L185.56-9.31L185.56-9.31Q187.83-11.32 190.28-12.75L190.28-12.75L190.28-12.75Q192.73-14.18 194.16-14.54L194.16-14.54L194.16-14.54Q195.59-14.89 196.94-14.89L196.94-14.89L196.94-14.89Q198.29-14.89 199.26-14.20L199.26-14.20L199.26-14.20Q200.23-13.52 200.23-12.75L200.23-12.75L200.23-12.75Q200.23-12.50 200.18-12.44L200.18-12.44L200.18-12.44Q200.12-12.39 199.92-12.50L199.92-12.50L199.92-12.50Q199.31-13.46 197.40-13.46L197.40-13.46L197.40-13.46Q195.48-13.46 193.06-12.21L193.06-12.21L193.06-12.21Q190.64-10.97 188.50-9.08L188.50-9.08L188.50-9.08Q186.71-7.40 185.36-5.28L185.36-5.28L185.36-5.28Q184.01-3.16 184.01-2.19L184.01-2.19L184.01-2.19Q184.01-0.31 185.08-0.31L185.08-0.31L185.08-0.31Q186.15-0.31 188.34-2.04L188.34-2.04L188.34-2.04Q191.96-5.10 193.29-6.53L193.29-6.53L193.29-6.53Q197.98-11.58 198.34-11.58L198.34-11.58L198.34-11.58Q198.95-11.58 199.82-11.22L199.82-11.22L199.82-11.22Q200.69-10.86 200.38-10.35L200.38-10.35L200.38-10.35Q197.78-6.68 197.32-2.96L197.32-2.96L197.32-2.96Q197.27-2.50 197.27-1.79L197.27-1.79L197.27-1.79Q197.27-1.07 197.68-0.61L197.68-0.61L197.68-0.61Q198.44 0.20 199.77-0.51L199.77-0.51L199.77-0.51Q201.09-1.22 203.46-3.37L203.46-3.37L203.46-3.37Q205.84-5.51 207.26-7.55L207.26-7.55L207.26-7.55Q207.47-7.80 207.72-7.68L207.72-7.68L207.72-7.68Q207.98-7.55 207.98-7.45L207.98-7.45L207.98-7.45Q207.98-6.68 205.56-4.11L205.56-4.11L205.56-4.11Q203.13-1.53 201.86-0.61L201.86-0.61L201.86-0.61Q199.46 1.17 197.42 1.17L197.42 1.17L197.42 1.17Q195.48 1.17 194.82-0.77L194.82-0.77L194.82-0.77Q194.67-1.38 194.67-2.14L194.67-2.14L194.67-2.14Q194.67-4.44 195.64-6.99L195.64-6.99L195.64-6.99Q195.43-6.89 193.75-4.95L193.75-4.95L193.75-4.95Q192.07-3.01 189.85-1.22L189.85-1.22L189.85-1.22Q187.63 0.56 185.84 0.56ZM217.46-19.02L217.46-19.02L217.46-19.02Q217.36-19.69 217.36-19.84L217.36-19.84L217.36-19.84Q218.08-23.66 224.86-27.13L224.86-27.13L224.86-27.13Q230.21-29.63 237.51-29.63L237.51-29.63L237.51-29.63Q242.00-29.63 246.38-28.41L246.38-28.41L246.38-28.41Q249.34-27.39 250.87-25.50L250.87-25.50L250.87-25.50Q252.40-23.61 252.40-21.68L252.40-21.68L252.40-21.68Q252.40-18.72 250.05-16.45L250.05-16.45L250.05-16.45Q247.71-14.18 244.80-12.95L244.80-12.95L244.80-12.95Q238.32-10.15 230.01-9.84L230.01-9.84L230.01-9.84Q230.67-9.03 232.15-7.17L232.15-7.17L232.15-7.17Q233.63-5.30 234.40-4.39L234.40-4.39L234.40-4.39Q235.16-3.47 236.61-1.81L236.61-1.81L236.61-1.81Q238.07-0.15 239.06 0.74L239.06 0.74L239.06 0.74Q240.06 1.63 241.59 2.88L241.59 2.88L241.59 2.88Q243.12 4.13 244.49 4.85L244.49 4.85L244.49 4.85Q249.29 7.40 252.86 7.40L252.86 7.40L254.59 7.24L254.59 7.24Q256.33 6.94 257.35 5.84L257.35 5.84L257.35 5.84Q258.37 4.74 258.37 3.42L258.37 3.42L258.37 3.42Q258.37 2.91 258.24 2.32L258.24 2.32L258.24 2.32Q258.11 1.73 258.57 1.73L258.57 1.73L258.57 1.73Q259.08 1.79 259.26 2.47L259.26 2.47L259.26 2.47Q259.44 3.16 259.44 4.18L259.44 4.18L259.44 4.18Q259.44 5.20 258.93 6.53L258.93 6.53L258.93 6.53Q258.37 8.36 255.82 9.33L255.82 9.33L255.82 9.33Q254.18 9.95 252.76 9.95L252.76 9.95L252.76 9.95Q248.47 9.95 244.09 7.55L244.09 7.55L244.09 7.55Q241.18 5.92 238.86 3.49L238.86 3.49L238.86 3.49Q236.54 1.07 234.98-0.87L234.98-0.87L234.98-0.87Q233.43-2.81 231.51-5.69L231.51-5.69L231.51-5.69Q229.60-8.57 228.84-9.54L228.84-9.54L228.48-9.59L228.48-9.59Q224.60-2.45 224.60-0.97L224.60-0.97L224.60-0.97Q224.60-0.20 225.27-0.20L225.27-0.20L225.27-0.20Q225.93-0.20 227.05-1.61L227.05-1.61L227.05-1.61Q228.17-3.01 228.58-2.96L228.58-2.96L228.58-2.96Q228.89-2.65 227.92-1.63L227.92-1.63L227.92-1.63Q227.82-1.53 227.56-1.10L227.56-1.10L227.56-1.10Q227.31-0.66 227.13-0.41L227.13-0.41L227.13-0.41Q226.95-0.15 226.64 0.26L226.64 0.26L226.64 0.26Q226.34 0.66 226.08 0.92L226.08 0.92L226.08 0.92Q225.83 1.17 225.52 1.43L225.52 1.43L225.52 1.43Q224.91 1.94 224.45 1.94L224.45 1.94L224.45 1.94Q223.99 1.94 223.18 1.76L223.18 1.76L223.18 1.76Q222.36 1.58 222.36 1.07L222.36 1.07L222.36 1.07Q222.36-1.22 226.54-9.59L226.54-9.59L226.54-9.59Q224.86-9.74 224.86-10.81L224.86-10.81L224.86-10.81Q224.86-11.02 224.91-11.32L224.91-11.32L224.91-11.32Q225.27-12.19 226.21-12.19L226.21-12.19L226.21-12.19Q227.15-12.19 227.72-11.73L227.72-11.73L227.72-11.73Q228.12-12.55 228.68-13.57L228.68-13.57L228.68-13.57Q230.67-17.14 230.67-18.11L230.67-18.11L230.67-18.11Q230.67-18.36 230.62-18.62L230.62-18.62L230.62-18.62Q230.83-20.04 233.10-22.36L233.10-22.36L233.10-22.36Q235.37-24.68 237.20-24.68L237.20-24.68L237.20-24.68Q237.81-24.68 238.83-24.23L238.83-24.23L238.83-24.23Q239.85-23.77 240.06-22.95L240.06-22.95L240.06-22.95Q240.11-22.59 240.08-22.52L240.08-22.52L240.08-22.52Q240.06-22.44 239.80-22.54L239.80-22.54L239.80-22.54Q239.55-22.64 239.50-22.64L239.50-22.64L239.50-22.64Q235.93-22.64 229.30-11.07L229.30-11.07L229.30-11.07Q229.91-10.81 230.49-10.81L230.49-10.81L230.49-10.81Q231.08-10.81 231.49-10.86L231.49-10.86L231.49-10.86Q236.69-11.42 241.66-13.31L241.66-13.31L241.66-13.31Q246.64-15.20 249.39-18.05L249.39-18.05L249.39-18.05Q251.18-19.79 251.18-21.73L251.18-21.73L251.18-21.73Q251.18-27.44 239.50-27.44L239.50-27.44L239.50-27.44Q232.82-27.44 226.75-25.40L226.75-25.40L226.75-25.40Q223.58-24.28 221.37-22.39L221.37-22.39L221.37-22.39Q219.15-20.50 218.74-18.11L218.74-18.11L218.74-18.11Q218.69-17.85 218.69-17.44L218.69-17.44L218.69-17.44Q218.69-17.03 219.02-16.45L219.02-16.45L219.02-16.45Q219.35-15.86 219.81-15.56L219.81-15.56L219.81-15.56Q220.27-15.25 221.11-14.84L221.11-14.84L221.11-14.84Q221.95-14.43 222.23-14.23L222.23-14.23L222.23-14.23Q222.51-14.03 222.36-13.80L222.36-13.80L222.36-13.80Q222.21-13.57 221.70-13.67L221.70-13.67L221.70-13.67Q220.12-13.92 218.74-15.25L218.74-15.25L218.74-15.25Q217.36-16.58 217.36-18.11L217.36-18.11L217.36-18.11Q217.36-18.56 217.46-19.02ZM257.04-14.84L257.04-14.84L257.04-14.84Q259.79-14.84 259.79-12.19L259.79-12.19L259.79-12.19Q259.79-10.81 259.03-9.95L259.03-9.95L259.03-9.95Q257.75-8.06 254.90-6.66L254.90-6.66L254.90-6.66Q252.04-5.25 250.05-5.10L250.05-5.10L250.05-5.10Q249.34-5.05 249.29-5.51L249.29-5.51L249.29-5.51Q249.24-5.71 249.42-5.76L249.42-5.76L249.42-5.76Q249.59-5.81 249.70-5.81L249.70-5.81L249.70-5.81Q250.87-5.92 252.71-6.94L252.71-6.94L252.71-6.94Q256.12-8.77 257.70-10.71L257.70-10.71L257.70-10.71Q258.37-11.63 258.37-12.47L258.37-12.47L258.37-12.47Q258.37-13.31 257.55-13.31L257.55-13.31L257.55-13.31Q256.89-13.31 255.77-12.75L255.77-12.75L255.77-12.75Q253.37-11.63 250.72-8.85L250.72-8.85L250.72-8.85Q248.06-6.07 247.25-3.42L247.25-3.42L247.25-3.42Q246.99-2.60 246.99-1.81L246.99-1.81L246.99-1.81Q246.99-1.02 247.66-0.31L247.66-0.31L247.66-0.31Q248.32 0.41 249.70 0.41L249.70 0.41L249.70 0.41Q251.23 0.41 253.22-0.41L253.22-0.41L253.22-0.41Q258.98-2.75 262.09-7.50L262.09-7.50L262.09-7.50Q262.40-7.91 262.65-7.65L262.65-7.65L262.65-7.65Q262.85-7.55 262.85-7.40L262.85-7.40L262.85-7.40Q262.85-7.24 262.70-7.04L262.70-7.04L262.70-7.04Q261.17-4.49 258.83-2.50L258.83-2.50L258.83-2.50Q254.29 1.38 250.00 1.38L250.00 1.38L250.00 1.38Q246.33 1.38 244.85-0.82L244.85-0.82L244.85-0.82Q244.29-1.68 244.29-2.91L244.29-2.91L244.29-2.91Q244.29-4.13 244.95-5.81L244.95-5.81L244.95-5.81Q246.23-8.72 250.41-11.78L250.41-11.78L250.41-11.78Q254.59-14.84 257.04-14.84ZM263.80-9.31L263.80-9.31L263.80-9.31Q266.07-11.32 268.52-12.75L268.52-12.75L268.52-12.75Q270.96-14.18 272.39-14.54L272.39-14.54L272.39-14.54Q273.82-14.89 275.20-14.89L275.20-14.89L275.20-14.89Q276.57-14.89 277.80-13.97L277.80-13.97L277.80-13.97Q284.78-30.19 291.16-30.19L291.16-30.19L291.16-30.19Q293.30-30.19 294.07-28.97L294.07-28.97L294.07-28.97Q294.42-28.36 294.42-27.90L294.42-27.90L294.42-27.90Q294.42-26.62 293.33-24.66L293.33-24.66L293.33-24.66Q292.23-22.70 289.94-20.35L289.94-20.35L289.94-20.35Q287.64-18.00 283.36-14.56L283.36-14.56L283.36-14.56Q279.07-11.12 278.61-10.71L278.61-10.71L278.61-10.71Q276.98-6.94 276.06-3.42L276.06-3.42L276.06-3.42Q275.15 0.10 275.15 1.84L275.15 1.84L275.15 1.84Q275.15 3.57 275.76 4.59L275.76 4.59L275.76 4.59Q276.06 5.25 276.68 5.38L276.68 5.38L276.68 5.38Q277.29 5.51 277.72 5.23L277.72 5.23L277.72 5.23Q278.15 4.95 278.38 4.74L278.38 4.74L278.38 4.74Q278.61 4.54 278.94 4.36L278.94 4.36L278.94 4.36Q279.28 4.18 279.43 4.28L279.43 4.28L279.43 4.28Q279.58 4.39 279.38 4.85L279.38 4.85L279.38 4.85Q278.97 5.36 278.61 5.71L278.61 5.71L278.61 5.71Q277.80 6.27 276.70 6.27L276.70 6.27L276.70 6.27Q275.60 6.27 275.25 6.22L275.25 6.22L275.25 6.22Q272.80 5.81 272.80 2.65L272.80 2.65L272.80 2.65Q272.80-0.41 273.62-3.01L273.62-3.01L273.62-3.01Q274.74-6.58 275.66-8.93L275.66-8.93L275.66-8.93Q267.50 0.56 264.08 0.56L264.08 0.56L264.08 0.56Q263.26 0.56 262.32 0.08L262.32 0.08L262.32 0.08Q261.38-0.41 260.71-1.30L260.71-1.30L260.71-1.30Q260.05-2.19 260.05-3.21L260.05-3.21L260.05-3.21Q260.05-4.23 260.51-5.15L260.51-5.15L260.51-5.15Q261.53-7.29 263.80-9.31ZM276.68-11.42L277.39-13.16L277.39-13.16Q276.78-13.46 275.25-13.46L275.25-13.46L275.25-13.46Q273.72-13.46 271.29-12.21L271.29-12.21L271.29-12.21Q268.87-10.97 266.73-9.08L266.73-9.08L266.73-9.08Q264.95-7.40 263.59-5.28L263.59-5.28L263.59-5.28Q262.24-3.16 262.24-2.19L262.24-2.19L262.24-2.19Q262.24-0.31 263.31-0.31L263.31-0.31L263.31-0.31Q264.38-0.31 266.58-2.04L266.58-2.04L266.58-2.04Q272.24-6.68 276.68-11.42L276.68-11.42ZM292.33-26.01L292.33-26.01L292.33-26.01Q293.00-27.23 293.00-28.08L293.00-28.08L293.00-28.08Q293.00-28.92 292.26-28.92L292.26-28.92L292.26-28.92Q291.52-28.92 290.29-28.00L290.29-28.00L290.29-28.00Q284.68-23.72 280.14-13.67L280.14-13.67L280.14-13.67Q283.46-15.81 287.08-19.38L287.08-19.38L287.08-19.38Q290.70-22.95 292.33-26.01ZM282.92-9.31L282.92-9.31L282.92-9.31Q285.19-11.32 287.64-12.75L287.64-12.75L287.64-12.75Q290.09-14.18 291.52-14.54L291.52-14.54L291.52-14.54Q292.94-14.89 294.32-14.89L294.32-14.89L294.32-14.89Q295.70-14.89 296.92-13.97L296.92-13.97L296.92-13.97Q303.91-30.19 310.28-30.19L310.28-30.19L310.28-30.19Q312.43-30.19 313.19-28.97L313.19-28.97L313.19-28.97Q313.55-28.36 313.55-27.90L313.55-27.90L313.55-27.90Q313.55-26.62 312.45-24.66L312.45-24.66L312.45-24.66Q311.36-22.70 309.06-20.35L309.06-20.35L309.06-20.35Q306.77-18.00 302.48-14.56L302.48-14.56L302.48-14.56Q298.20-11.12 297.74-10.71L297.74-10.71L297.74-10.71Q296.11-6.94 295.19-3.42L295.19-3.42L295.19-3.42Q294.27 0.10 294.27 1.84L294.27 1.84L294.27 1.84Q294.27 3.57 294.88 4.59L294.88 4.59L294.88 4.59Q295.19 5.25 295.80 5.38L295.80 5.38L295.80 5.38Q296.41 5.51 296.85 5.23L296.85 5.23L296.85 5.23Q297.28 4.95 297.51 4.74L297.51 4.74L297.51 4.74Q297.74 4.54 298.07 4.36L298.07 4.36L298.07 4.36Q298.40 4.18 298.55 4.28L298.55 4.28L298.55 4.28Q298.71 4.39 298.50 4.85L298.50 4.85L298.50 4.85Q298.10 5.36 297.74 5.71L297.74 5.71L297.74 5.71Q296.92 6.27 295.83 6.27L295.83 6.27L295.83 6.27Q294.73 6.27 294.37 6.22L294.37 6.22L294.37 6.22Q291.92 5.81 291.92 2.65L291.92 2.65L291.92 2.65Q291.92-0.41 292.74-3.01L292.74-3.01L292.74-3.01Q293.86-6.58 294.78-8.93L294.78-8.93L294.78-8.93Q286.62 0.56 283.20 0.56L283.20 0.56L283.20 0.56Q282.39 0.56 281.44 0.08L281.44 0.08L281.44 0.08Q280.50-0.41 279.84-1.30L279.84-1.30L279.84-1.30Q279.17-2.19 279.17-3.21L279.17-3.21L279.17-3.21Q279.17-4.23 279.63-5.15L279.63-5.15L279.63-5.15Q280.65-7.29 282.92-9.31ZM295.80-11.42L296.51-13.16L296.51-13.16Q295.90-13.46 294.37-13.46L294.37-13.46L294.37-13.46Q292.84-13.46 290.42-12.21L290.42-12.21L290.42-12.21Q288.00-10.97 285.86-9.08L285.86-9.08L285.86-9.08Q284.07-7.40 282.72-5.28L282.72-5.28L282.72-5.28Q281.37-3.16 281.37-2.19L281.37-2.19L281.37-2.19Q281.37-0.31 282.44-0.31L282.44-0.31L282.44-0.31Q283.51-0.31 285.70-2.04L285.70-2.04L285.70-2.04Q291.36-6.68 295.80-11.42L295.80-11.42ZM311.46-26.01L311.46-26.01L311.46-26.01Q312.12-27.23 312.12-28.08L312.12-28.08L312.12-28.08Q312.12-28.92 311.38-28.92L311.38-28.92L311.38-28.92Q310.64-28.92 309.42-28.00L309.42-28.00L309.42-28.00Q303.81-23.72 299.27-13.67L299.27-13.67L299.27-13.67Q302.58-15.81 306.20-19.38L306.20-19.38L306.20-19.38Q309.83-22.95 311.46-26.01ZM298.40 19.43L298.40 19.43L298.40 19.43Q297.99 19.43 297.38 19.28L297.38 19.28L297.38 19.28Q294.78 18.62 294.78 16.55L294.78 16.55L294.78 16.55Q294.78 14.48 297.46 11.37L297.46 11.37L297.46 11.37Q300.14 8.26 308.75 2.55L308.75 2.55L308.75 2.55Q313.55-7.24 314.82-11.17L314.82-11.17L314.82-11.17Q314.21-10.46 312.43-8.08L312.43-8.08L312.43-8.08Q310.64-5.71 309.26-4.05L309.26-4.05L309.26-4.05Q307.89-2.40 305.95-0.92L305.95-0.92L305.95-0.92Q304.01 0.56 302.38 0.56L302.38 0.56L302.38 0.56Q300.75 0.56 299.85-0.18L299.85-0.18L299.85-0.18Q298.96-0.92 298.86-1.73L298.86-1.73L298.86-1.73Q298.76-2.55 298.76-3.11L298.76-3.11L298.76-3.11Q298.76-5.00 299.78-6.89L299.78-6.89L299.78-6.89Q301.31-10.00 303.91-12.24L303.91-12.24L303.91-12.24Q304.88-13.16 305.62-13.16L305.62-13.16L305.62-13.16Q306.36-13.16 306.97-12.70L306.97-12.70L306.97-12.70Q307.63-11.99 307.38-11.48L307.38-11.48L307.38-11.48Q305.44-10.35 302.94-7.14L302.94-7.14L302.94-7.14Q301.61-5.41 301.10-2.75L301.10-2.75L301.10-2.75Q301.05-2.40 301.05-1.86L301.05-1.86L301.05-1.86Q301.05-1.33 301.49-0.99L301.49-0.99L301.49-0.99Q301.92-0.66 302.38-0.66L302.38-0.66L302.38-0.66Q303.96-0.66 305.69-2.35L305.69-2.35L305.69-2.35Q307.43-4.03 309.01-5.89L309.01-5.89L309.01-5.89Q310.59-7.75 312.60-10.35L312.60-10.35L312.60-10.35Q314.62-12.95 315.26-13.77L315.26-13.77L315.26-13.77Q315.89-14.59 316.56-14.59L316.56-14.59L316.56-14.59Q317.37-14.59 318.24-14.13L318.24-14.13L318.24-14.13Q319.11-13.67 318.98-13.41L318.98-13.41L318.98-13.41Q318.85-13.16 316.38-7.62L316.38-7.62L316.38-7.62Q313.91-2.09 312.78 0.31L312.78 0.31L312.78 0.31Q314.01-0.36 316.94-2.83L316.94-2.83L316.94-2.83Q319.87-5.30 321.91-7.85L321.91-7.85L321.91-7.85Q322.42-8.47 322.58-7.96L322.58-7.96L322.58-7.96Q322.63-7.85 322.63-7.62L322.63-7.62L322.63-7.62Q322.63-7.40 322.32-6.99L322.32-6.99L322.32-6.99Q320.74-4.90 317.27-1.73L317.27-1.73L317.27-1.73Q313.80 1.43 311.76 2.55L311.76 2.55L311.76 2.55Q307.43 11.48 305.95 13.77L305.95 13.77L305.95 13.77Q302.12 19.43 298.40 19.43ZM307.79 4.49L307.79 4.49L307.79 4.49Q301.67 9.08 299.04 11.73L299.04 11.73L299.04 11.73Q296.41 14.38 296.41 16.29L296.41 16.29L296.41 16.29Q296.41 18.21 297.74 18.21L297.74 18.21L297.74 18.21Q298.76 18.21 300.08 17.16L300.08 17.16L300.08 17.16Q301.41 16.12 302.63 14.38L302.63 14.38L302.63 14.38Q303.86 12.65 304.50 11.40L304.50 11.40L304.50 11.40Q305.13 10.15 306.26 7.73L306.26 7.73L306.26 7.73Q307.38 5.30 307.79 4.49Z" fill="#ccc"></path></g></g><style>text {
  font-size: 64px;
  font-family: Arial Black;
  dominant-baseline: central;
  text-anchor: middle;
}</style></svg>